<svg xmlns="http://www.w3.org/2000/svg" viewBox="0 0 64 64" width="64" height="64">
  <defs>
    <linearGradient id="body" x1="0%" y1="0%" x2="0%" y2="100%">
      <stop offset="0%" style="stop-color:#C49A2A"/>
      <stop offset="100%" style="stop-color:#8B6914"/>
    </linearGradient>
    <radialGradient id="eyeGlow" cx="50%" cy="50%" r="50%">
      <stop offset="0%" style="stop-color:#00D4FF" stop-opacity="0.6"/>
      <stop offset="100%" style="stop-color:#00D4FF" stop-opacity="0"/>
    </radialGradient>
    <linearGradient id="iris" x1="0%" y1="0%" x2="100%" y2="100%">
      <stop offset="0%" style="stop-color:#00D4FF"/>
      <stop offset="100%" style="stop-color:#0099CC"/>
    </linearGradient>
  </defs>

  <!-- Background circle -->
  <rect width="64" height="64" rx="12" fill="#1a1a2e"/>

  <!-- Wings -->
  <ellipse cx="18" cy="38" rx="10" ry="14" fill="#A07D1C" transform="rotate(-8,18,38)"/>
  <ellipse cx="46" cy="38" rx="10" ry="14" fill="#A07D1C" transform="rotate(8,46,38)"/>

  <!-- Body -->
  <ellipse cx="32" cy="40" rx="16" ry="18" fill="url(#body)"/>

  <!-- Chest -->
  <ellipse cx="32" cy="42" rx="10" ry="11" fill="#FFF8F0"/>

  <!-- Head -->
  <circle cx="32" cy="22" r="16" fill="url(#body)"/>

  <!-- Ear tufts -->
  <path d="M20,12 L16,4 L24,9 Z" fill="#5C4A0F"/>
  <path d="M44,12 L48,4 L40,9 Z" fill="#5C4A0F"/>

  <!-- Eye glow halos -->
  <circle cx="25" cy="22" r="9" fill="url(#eyeGlow)"/>
  <circle cx="39" cy="22" r="9" fill="url(#eyeGlow)"/>

  <!-- Eye whites -->
  <circle cx="25" cy="22" r="7" fill="white"/>
  <circle cx="39" cy="22" r="7" fill="white"/>

  <!-- Iris -->
  <circle cx="25" cy="22" r="5" fill="url(#iris)"/>
  <circle cx="39" cy="22" r="5" fill="url(#iris)"/>

  <!-- Pupils -->
  <circle cx="25" cy="22" r="2.5" fill="#0a0a2e"/>
  <circle cx="39" cy="22" r="2.5" fill="#0a0a2e"/>

  <!-- Eye ring -->
  <circle cx="25" cy="22" r="7" fill="none" stroke="#E8C84A" stroke-width="0.8"/>
  <circle cx="39" cy="22" r="7" fill="none" stroke="#E8C84A" stroke-width="0.8"/>

  <!-- AI highlight dots -->
  <circle cx="23.5" cy="20.5" r="1.2" fill="white" opacity="0.95"/>
  <circle cx="37.5" cy="20.5" r="1.2" fill="white" opacity="0.95"/>

  <!-- Beak -->
  <path d="M32,27 L29,31 L32,30 L35,31 Z" fill="#F5B800"/>
  <path d="M32,27 L29,31 L35,31 Z" fill="#E8A818"/>
</svg>